<?xml version="1.0" encoding="iso-8859-1"?>
<!-- Generator: Adobe Illustrator 19.0.0, SVG Export Plug-In . SVG Version: 6.00 Build 0)  -->
<svg version="1.1" id="Layer_1" xmlns="http://www.w3.org/2000/svg" xmlns:xlink="http://www.w3.org/1999/xlink" x="0px" y="0px"
	 viewBox="0 0 512.001 512.001" style="enable-background:new 0 0 512.001 512.001;" xml:space="preserve">
<path style="fill:#898890;" d="M341.334,46.537V23.283c0-12.853-10.42-23.273-23.273-23.273c-12.853,0-23.273,10.42-23.273,23.273
	v23.253h23.273h23.273V46.537z"/>
<path style="fill:#FF6243;" d="M511.182,234.352L464.636,63.686c-2.762-10.125-11.958-17.149-22.454-17.149H341.334h-23.273h-23.273
	h-38.788H69.819c-10.496,0-19.69,7.024-22.454,17.149L0.82,234.352c-1.907,6.997-0.445,14.485,3.958,20.25
	s11.242,9.146,18.496,9.146h23.273h23.273h23.273h162.909H418.91h23.273h23.273h23.273c7.253,0,14.092-3.382,18.496-9.146
	C511.627,248.839,513.089,241.35,511.182,234.352z"/>
<path style="fill:#D6E5F6;" d="M442.183,263.749H418.91H256.001H93.092H69.819H46.546v224.968c0,12.853,10.42,23.273,23.273,23.273
	h124.09c0.011,0,0.02,0.002,0.031,0.002h62.061h62.061c0.011,0,0.02-0.002,0.029-0.002h124.092c12.853,0,23.273-10.42,23.273-23.273
	V263.749H442.183z"/>
<path style="fill:#A78966;" d="M318.062,325.81h-62.061H193.94c-12.853,0-23.273,10.42-23.273,23.273v116.362v23.273v0.002
	c0,12.843,10.403,23.254,23.242,23.271c0.011,0,0.02,0.002,0.031,0.002h62.061h62.061c0.011,0,0.02-0.002,0.029-0.002
	c12.839-0.017,23.243-10.428,23.243-23.271v-0.002v-23.273V349.082C341.334,336.229,330.914,325.81,318.062,325.81z"/>
<path style="fill:#BCD6F2;" d="M170.668,488.719v-0.002v-23.273V349.082c0-12.853,10.42-23.273,23.273-23.273h62.061v-62.061H93.092
	H69.819H46.546v224.968c0,12.853,10.42,23.273,23.273,23.273h124.09C181.071,511.973,170.668,501.562,170.668,488.719z"/>
<path style="fill:#806749;" d="M193.94,325.81c-12.853,0-23.273,10.42-23.273,23.273v116.362v23.273v0.002
	c0,12.843,10.403,23.254,23.242,23.271c0.011,0,0.02,0.002,0.031,0.002h62.061V325.81L193.94,325.81L193.94,325.81z"/>
<path style="fill:#FF0C38;" d="M93.092,263.749h162.909V46.537H69.819c-10.496,0-19.69,7.024-22.454,17.149L0.82,234.352
	c-1.908,6.997-0.445,14.485,3.958,20.25c4.403,5.764,11.242,9.146,18.496,9.146h23.273h23.273H93.092z"/>
<g>
</g>
<g>
</g>
<g>
</g>
<g>
</g>
<g>
</g>
<g>
</g>
<g>
</g>
<g>
</g>
<g>
</g>
<g>
</g>
<g>
</g>
<g>
</g>
<g>
</g>
<g>
</g>
<g>
</g>
</svg>
